<mxfile host="65bd71144e">
    <diagram id="GC4S91WVJdEGyDAQGroD" name="ページ1">
        <mxGraphModel dx="1883" dy="1375" grid="1" gridSize="10" guides="1" tooltips="1" connect="1" arrows="1" fold="1" page="1" pageScale="1" pageWidth="1654" pageHeight="1169" math="0" shadow="0">
            <root>
                <mxCell id="0"/>
                <mxCell id="1" parent="0"/>
                <mxCell id="2" value="" style="shape=actor;whiteSpace=wrap;html=1;" vertex="1" parent="1">
                    <mxGeometry x="50" y="200" width="150" height="190" as="geometry"/>
                </mxCell>
                <mxCell id="3" value="" style="swimlane;startSize=0;dashed=1;" vertex="1" parent="1">
                    <mxGeometry x="240" y="120" width="1360" height="920" as="geometry"/>
                </mxCell>
                <mxCell id="4" value="" style="ellipse;whiteSpace=wrap;html=1;aspect=fixed;" vertex="1" parent="3">
                    <mxGeometry x="510" y="20" width="340" height="340" as="geometry"/>
                </mxCell>
                <mxCell id="5" value="" style="ellipse;whiteSpace=wrap;html=1;aspect=fixed;" vertex="1" parent="3">
                    <mxGeometry x="40" y="540" width="340" height="340" as="geometry"/>
                </mxCell>
                <mxCell id="9" value="" style="ellipse;whiteSpace=wrap;html=1;aspect=fixed;" vertex="1" parent="3">
                    <mxGeometry x="980" y="540" width="340" height="340" as="geometry"/>
                </mxCell>
            </root>
        </mxGraphModel>
    </diagram>
</mxfile>